<svg xmlns="http://www.w3.org/2000/svg" width="32.181" height="32.181" viewBox="0 0 32.181 32.181">
  <g id="Raggruppa_16" data-name="Raggruppa 16" transform="translate(0 0)">
    <circle id="Ellisse_18" data-name="Ellisse 18" cx="16.09" cy="16.09" r="16.09" transform="translate(0 0)" fill="#d45165"/>
    <path id="Tracciato_19" data-name="Tracciato 19" d="M207.384,383.092a4.7,4.7,0,0,0-8.147-3.206,4.7,4.7,0,0,0-8.147,3.206,2.967,2.967,0,0,0,.06.715,4.669,4.669,0,0,0,.353,1.207c.708,1.8,2.6,4.714,7.656,8.164,0,0,5.961-3.236,7.749-8.036A4.68,4.68,0,0,0,207.384,383.092Z" transform="translate(-183.145 -369.691)" fill="#fff"/>
  </g>
</svg>
