<svg xmlns="http://www.w3.org/2000/svg" width="32.184" height="32.184" viewBox="0 0 32.184 32.184">
  <g id="laughing" transform="translate(-15.08 -15.08)">
    <circle id="Ellisse_1" data-name="Ellisse 1" cx="16.092" cy="16.092" r="16.092" transform="translate(15.08 15.08)" fill="#ffd972"/>
    <path id="Tracciato_1" data-name="Tracciato 1" d="M105.157,280.385a26.728,26.728,0,0,1,9.9,1.587c-.079.144-.164.285-.251.424a8.491,8.491,0,0,0,1.447-4.718c0-.357-21.546-.331-21.546,0a8.457,8.457,0,0,0,1.264,4.432c-.067-.116-.134-.232-.193-.351A28.257,28.257,0,0,1,105.157,280.385Z" transform="translate(-74.311 -244.817)" fill="#252c37"/>
    <path id="Tracciato_2" data-name="Tracciato 2" d="M123.149,352.619a11.121,11.121,0,0,1-9.342-4.726q-.086-.13-.167-.263c.087.153.179.3.276.453a11.4,11.4,0,0,0,18.558-.166A11.127,11.127,0,0,1,123.149,352.619Z" transform="translate(-91.977 -310.338)" fill="#f25268"/>
    <path id="Tracciato_3" data-name="Tracciato 3" d="M120.452,328.523a11.125,11.125,0,0,0,9.326-4.7c.087-.14.172-.281.251-.424a26.729,26.729,0,0,0-9.9-1.587,28.258,28.258,0,0,0-9.376,1.374c.061.118.126.235.193.351q.081.134.167.263A11.121,11.121,0,0,0,120.452,328.523Z" transform="translate(-89.28 -286.242)" fill="#f25268"/>
    <path id="Tracciato_4" data-name="Tracciato 4" d="M88.323,142.353l4.163,2.178a.848.848,0,0,0,1.135-.3.838.838,0,0,0-.3-1.135l-4.163-2.179a.848.848,0,0,0-1.135.3.838.838,0,0,0,.3,1.135Z" transform="translate(-67.972 -117.337)" fill="#252c37"/>
    <path id="Tracciato_5" data-name="Tracciato 5" d="M89.458,177.549l4.163-2.179a.83.83,0,0,0-.838-1.433l-4.164,2.177a.83.83,0,1,0,.838,1.433Z" transform="translate(-68.248 -148.148)" fill="#252c37"/>
    <path id="Tracciato_6" data-name="Tracciato 6" d="M341.6,140.919l-4.163,2.18a.83.83,0,0,0,.838,1.433l4.165-2.179a.83.83,0,1,0-.837-1.433Z" transform="translate(-300.442 -117.338)" fill="#252c37"/>
    <path id="Tracciato_7" data-name="Tracciato 7" d="M342.173,176.117l-4.163-2.178a.848.848,0,0,0-1.136.3.838.838,0,0,0,.3,1.135l4.163,2.179a.847.847,0,0,0,1.135-.3.839.839,0,0,0-.3-1.135Z" transform="translate(-300.2 -148.151)" fill="#252c37"/>
  </g>
</svg>
