<svg xmlns="http://www.w3.org/2000/svg" width="32.18" height="32.18" viewBox="0 0 32.18 32.18">
  <g id="like" transform="translate(-9.43 -9.43)">
    <path id="Tracciato_8" data-name="Tracciato 8" d="M25.52,9.43A16.09,16.09,0,1,0,41.61,25.52,16.09,16.09,0,0,0,25.52,9.43ZM20.854,32.759a.789.789,0,0,1-.812.759H17.9a.789.789,0,0,1-.812-.759V26.247a.79.79,0,0,1,.812-.759h2.141a.789.789,0,0,1,.812.759Zm12.562-4.191a1.182,1.182,0,0,0-.318.987,1.544,1.544,0,0,1-.491,1.432,1.217,1.217,0,0,0-.371,1.118c.131.783-.27,1.892-3.744,1.729l-4.522-.108a1,1,0,0,1-.117-.008c-.373-.046-2.32-.326-2.173-1.192l-.008-6.056a1.207,1.207,0,0,1,.093-.464l2.554-5a.538.538,0,0,0,.059-.244V18.416a1.187,1.187,0,0,1,.587-1.034,1.277,1.277,0,0,1,1.483.1c1.144.848,1.171,1.305,1.171,1.305a7.1,7.1,0,0,1,.3,2.916A1.2,1.2,0,0,0,29.109,23.1h2.6a1.155,1.155,0,0,1,.126.007,1.691,1.691,0,0,1,1.569,2.382,1.159,1.159,0,0,0,.2,1.064A1.391,1.391,0,0,1,33.416,28.567Z" fill="#4080ff"/>
    <path id="Tracciato_9" data-name="Tracciato 9" d="M208.427,136.934a1.72,1.72,0,0,0-1.522-2.45,1.054,1.054,0,0,0-.122-.007h-2.524a1.141,1.141,0,0,1-.887-.433,1.29,1.29,0,0,1-.266-1,7.71,7.71,0,0,0-.29-3s-.027-.476-1.136-1.342a1.18,1.18,0,0,0-1.438-.1,1.237,1.237,0,0,0-.57,1.063v2.411a.581.581,0,0,1-.057.251l-2.477,5.141a1.306,1.306,0,0,0-.09.477l.008,6.226c-.143.887,1.746,1.177,2.107,1.225.038,0,.075.007.113.009l4.386.111c3.369.166,3.76-.976,3.631-1.777a1.3,1.3,0,0,1,.36-1.149,1.645,1.645,0,0,0,.476-1.472,1.262,1.262,0,0,1,.307-1.018,1.493,1.493,0,0,0,.182-2.074A1.249,1.249,0,0,1,208.427,136.934Z" transform="translate(-175.147 -111.449)" fill="#fff"/>
    <path id="Tracciato_10" data-name="Tracciato 10" d="M129.664,255.51h-2.076a.766.766,0,0,0-.788.736v6.315a.765.765,0,0,0,.788.736h2.076a.765.765,0,0,0,.787-.736v-6.315A.766.766,0,0,0,129.664,255.51Z" transform="translate(-109.68 -229.861)" fill="#fff"/>
  </g>
</svg>
